HIERARCHY
ROOT Hips
{
	OFFSET -0.001795 -0.223333 0.028219
	CHANNELS 6 Xposition Yposition Zposition Zrotation Yrotation Xrotation 
	JOINT LeftUpLeg
	{
		OFFSET 0.069520 -0.091406 -0.006815
		CHANNELS 3 Zrotation Yrotation Xrotation
		JOINT LeftLeg
		{
			OFFSET 0.034277 -0.375199 -0.004496
			CHANNELS 3 Zrotation Yrotation Xrotation
			JOINT LeftFoot
			{
				OFFSET -0.013596 -0.397961 -0.043693
				CHANNELS 3 Zrotation Yrotation Xrotation
				JOINT LeftToe
				{
					OFFSET 0.026358 -0.055791 0.119288
					CHANNELS 3 Zrotation Yrotation Xrotation
					End Site
					{
						OFFSET 0.000000 0.000000 0.000000
					}
				}
			}
		}
	}
	JOINT RightUpLeg
	{
		OFFSET -0.067670 -0.090522 -0.004320
		CHANNELS 3 Zrotation Yrotation Xrotation
		JOINT RightLeg
		{
			OFFSET -0.038290 -0.382569 -0.008850
			CHANNELS 3 Zrotation Yrotation Xrotation
			JOINT RightFoot
			{
				OFFSET 0.015774 -0.398415 -0.042312
				CHANNELS 3 Zrotation Yrotation Xrotation
				JOINT RightToe
				{
					OFFSET -0.025372 -0.048144 0.123348
					CHANNELS 3 Zrotation Yrotation Xrotation
					End Site
					{
						OFFSET 0.000000 0.000000 0.000000
					}
				}
			}
		}
	}
	JOINT Spine
	{
		OFFSET -0.002533 0.108963 -0.026696
		CHANNELS 3 Zrotation Yrotation Xrotation
		JOINT Spine1
		{
			OFFSET 0.005487 0.135180 0.001092
			CHANNELS 3 Zrotation Yrotation Xrotation
			JOINT Spine2
			{
				OFFSET 0.001457 0.052922 0.025425
				CHANNELS 3 Zrotation Yrotation Xrotation
				JOINT Neck
				{
					OFFSET -0.002778 0.213870 -0.042857
					CHANNELS 3 Zrotation Yrotation Xrotation
					JOINT Head
					{
						OFFSET 0.005152 0.064970 0.051349
						CHANNELS 3 Zrotation Yrotation Xrotation
						End Site
						{
							OFFSET 0.000000 0.000000 0.000000
						}
					}
				}
				JOINT LeftShoulder
				{
					OFFSET 0.078845 0.121749 -0.034090
					CHANNELS 3 Zrotation Yrotation Xrotation
					JOINT LeftArm
					{
						OFFSET 0.090977 0.030469 -0.008868
						CHANNELS 3 Zrotation Yrotation Xrotation
						JOINT LeftForeArm
						{
							OFFSET 0.259612 -0.012772 -0.027456
							CHANNELS 3 Zrotation Yrotation Xrotation
							JOINT LeftHand
							{
								OFFSET 0.249234 0.008986 -0.001171
								CHANNELS 3 Zrotation Yrotation Xrotation
								End Site
								{
									OFFSET 0.000000 0.000000 0.000000
								}
							}
						}
					}
				}
				JOINT RightShoulder
				{
					OFFSET -0.081759 0.118833 -0.038615
					CHANNELS 3 Zrotation Yrotation Xrotation
					JOINT RightArm
					{
						OFFSET -0.096012 0.032551 -0.009143
						CHANNELS 3 Zrotation Yrotation Xrotation
						JOINT RightForeArm
						{
							OFFSET -0.253742 -0.013329 -0.021401
							CHANNELS 3 Zrotation Yrotation Xrotation
							JOINT RightHand
							{
								OFFSET -0.255298 0.007772 -0.005559
								CHANNELS 3 Zrotation Yrotation Xrotation
								End Site
								{
									OFFSET 0.000000 0.000000 0.000000
								}
							}
						}
					}
				}
			}
		}
	}
}
MOTION
Frames: 7
Frame Time: 0.050000
0.050654 0.962646 -0.013306 -1.781924 4.985468 4.598423 1.826294 0.017315 1.087482 2.366269 0.426484 -13.507519 -2.314285 3.676293 17.718815 0.000000 0.000000 0.000000 -6.476190 0.264148 -2.505509 -2.008056 -0.017818 -4.240848 0.549353 -4.276002 15.767561 0.000000 0.000000 0.000000 0.269887 0.211260 -5.603100 1.827717 -0.623695 -4.094566 -2.864816 -0.494612 4.476792 4.334185 -3.001227 -3.144490 0.000000 0.000000 0.000000 -4.750380 -2.715091 0.425682 -57.295272 -8.248335 -3.052658 -34.367779 -41.807596 14.703535 0.000000 0.000000 0.000000 -2.317529 2.577372 0.972018 45.942703 43.200057 12.975107 -142.546672 45.430201 -90.746859 0.000000 0.000000 0.000000 
0.045890 0.962455 -0.016252 -1.635127 6.890724 4.629613 2.307262 -0.010831 1.133397 1.842092 0.408284 -14.011472 -3.084362 2.935430 17.972847 0.000000 0.000000 0.000000 -6.421898 0.216331 -2.049327 -2.131662 -0.032512 -4.735063 0.029985 -4.910329 15.859608 0.000000 0.000000 0.000000 -0.000435 0.183713 -5.251020 1.742781 -0.557145 -4.252139 -3.147531 0.732459 4.902033 5.114879 -3.255407 -4.713686 0.000000 0.000000 0.000000 -4.677619 -3.102484 0.428082 -57.542045 -11.178082 -1.871068 -40.316151 -49.092603 19.951648 0.000000 0.000000 0.000000 -2.322787 2.635457 0.949171 47.952330 43.404702 14.196960 -139.255146 48.888998 -89.150672 0.000000 0.000000 0.000000 
0.040047 0.962312 -0.019542 -1.420233 8.184647 4.447417 2.704589 -0.043995 1.014698 1.487995 0.378870 -14.028679 -3.742400 2.222511 18.090184 0.000000 0.000000 0.000000 -6.200251 0.188166 -1.900094 -2.411290 -0.021392 -4.955754 -0.365259 -5.467569 16.148205 0.000000 0.000000 0.000000 -0.208401 0.162334 -4.881739 1.403382 -0.404095 -4.126535 -3.121904 2.338346 5.052689 5.279528 -3.079675 -5.746735 0.000000 0.000000 0.000000 -4.535389 -3.494340 0.438055 -57.586697 -13.263072 -1.065533 -49.291013 -55.932222 27.670810 0.000000 0.000000 0.000000 -2.645563 3.667234 1.254317 48.656643 42.855571 14.597700 -132.373547 52.399461 -83.269290 0.000000 0.000000 0.000000 
0.033739 0.962512 -0.022733 -1.180473 9.440401 4.277040 2.857691 -0.055348 1.067148 1.400319 0.364632 -14.474697 -4.319398 1.727180 18.440373 0.000000 0.000000 0.000000 -5.913128 0.126041 -1.056252 -2.756972 -0.054765 -5.860920 -0.711386 -5.865837 16.086404 0.000000 0.000000 0.000000 -0.125447 0.138248 -4.163880 0.833834 -0.114848 -4.626164 -3.264325 3.967870 5.654988 6.086139 -3.274111 -7.117013 0.000000 0.000000 0.000000 -4.384478 -5.074680 0.875304 -57.930423 -15.131054 -0.421533 -55.338548 -60.709760 33.637249 0.000000 0.000000 0.000000 -2.635243 3.922486 1.304698 48.527500 42.666703 14.802702 -124.873277 55.857327 -77.424572 0.000000 0.000000 0.000000 
0.027372 0.962705 -0.025786 -1.156890 10.452327 4.267882 3.160825 -0.102225 0.620332 1.475171 0.347182 -14.361380 -4.884200 1.333668 19.034905 0.000000 0.000000 0.000000 -5.759006 0.106138 -0.938844 -3.024803 -0.061781 -6.246116 -0.842533 -5.955672 16.226405 0.000000 0.000000 0.000000 0.266701 0.133481 -3.935337 0.374527 0.068494 -4.194684 -3.650667 5.207584 5.625963 6.570337 -3.300415 -8.063931 0.000000 0.000000 0.000000 -4.318034 -5.556629 0.925497 -58.340592 -16.466886 0.062807 -61.606134 -63.426157 39.129570 0.000000 0.000000 0.000000 -2.844624 4.082373 1.321888 48.852543 41.900865 14.873123 -117.803636 58.939177 -72.665221 0.000000 0.000000 0.000000 
0.020918 0.963078 -0.028340 -1.150241 11.439525 4.303670 3.477175 -0.138793 0.374115 1.283700 0.324868 -14.548348 -5.288606 1.032903 19.307108 0.000000 0.000000 0.000000 -5.510496 0.080489 -0.682338 -3.176652 -0.086841 -6.741932 -0.901068 -5.936006 16.466865 0.000000 0.000000 0.000000 0.526663 0.122920 -3.612963 0.009900 0.241119 -4.303449 -3.940420 6.005402 5.945627 6.937363 -3.177228 -9.338757 0.000000 0.000000 0.000000 -4.123080 -6.511538 1.198338 -58.485174 -17.454718 0.377534 -65.575435 -64.970749 42.676777 0.000000 0.000000 0.000000 -2.629380 4.247041 1.384034 48.471348 40.370753 14.106892 -114.109226 63.151746 -73.221118 0.000000 0.000000 0.000000 
0.014027 0.963131 -0.030277 -1.212454 12.281164 4.428058 3.704930 -0.172624 0.077245 1.577576 0.321464 -14.644750 -5.679106 0.866252 19.854649 0.000000 0.000000 0.000000 -5.261412 0.071899 -0.655374 -3.468449 -0.122968 -7.426928 -0.629291 -5.307848 16.500730 0.000000 0.000000 0.000000 0.834457 0.113251 -3.344104 -0.264693 0.352632 -4.050929 -4.276467 6.299296 5.864924 7.463105 -3.252893 -10.331106 0.000000 0.000000 0.000000 -4.646109 -6.799572 1.135833 -57.831497 -17.675186 0.506167 -66.957625 -65.116279 43.455997 0.000000 0.000000 0.000000 -2.408516 4.120359 1.358059 49.340291 38.231693 13.441986 -116.679665 67.814459 -80.866166 0.000000 0.000000 0.000000 
